<svg xmlns="http://www.w3.org/2000/svg" viewBox="0 0 98 96" role="img" aria-label="GitHub">
  <path fill="#24292f" fill-rule="evenodd" clip-rule="evenodd" d="M48.85 0C21.88 0 0 21.88 0 48.85c0 21.58 13.99 39.88 33.39 46.34 2.44.45 3.34-1.06 3.34-2.35 0-1.16-.04-5.01-.07-9.09-13.58 2.95-16.44-5.76-16.44-5.76-2.22-5.64-5.42-7.14-5.42-7.14-4.43-3.03.34-2.97.34-2.97 4.9.35 7.48 5.03 7.48 5.03 4.35 7.46 11.42 5.3 14.2 4.05.44-3.15 1.7-5.3 3.1-6.52-10.84-1.23-22.24-5.42-22.24-24.13 0-5.33 1.9-9.69 5.03-13.11-.51-1.23-2.18-6.2.48-12.92 0 0 4.1-1.31 13.43 5.01 3.89-1.08 8.07-1.62 12.22-1.64 4.15.02 8.33.56 12.23 1.64 9.32-6.32 13.41-5.01 13.41-5.01 2.66 6.72.99 11.69.49 12.92 3.13 3.42 5.02 7.78 5.02 13.11 0 18.76-11.42 22.89-22.29 24.1 1.75 1.51 3.31 4.49 3.31 9.05 0 6.53-.06 11.8-.06 13.4 0 1.3.88 2.82 3.36 2.34C83.87 88.71 97.8 70.42 97.8 48.85 97.8 21.88 75.92 0 48.85 0Z"/>
</svg>
